ply
format ascii 1.0
comment EF Ventures procedural demo - GPL-3.0
element vertex 774
property float x
property float y
property float z
property uchar red
property uchar green
property uchar blue
element face 1544
property list uchar int vertex_indices
end_header
1.8400 0.0000 0.0000 174 143 250
1.7990 0.0000 0.0990 174 143 250
1.7000 0.0000 0.1400 174 143 250
1.6010 0.0000 0.0990 174 143 250
1.5600 0.0000 0.0000 174 143 250
1.6010 0.0000 -0.0990 174 143 250
1.7000 0.0000 -0.1400 174 143 250
1.7990 0.0000 -0.0990 174 143 250
1.8046 0.3590 0.0000 173 142 249
1.7644 0.3510 0.0990 173 142 249
1.6673 0.3317 0.1400 173 142 249
1.5702 0.3123 0.0990 173 142 249
1.5300 0.3043 0.0000 173 142 249
1.5702 0.3123 -0.0990 173 142 249
1.6673 0.3317 -0.1400 173 142 249
1.7644 0.3510 -0.0990 173 142 249
1.6999 0.7041 0.0000 171 141 246
1.6621 0.6884 0.0990 171 141 246
1.5706 0.6506 0.1400 171 141 246
1.4791 0.6127 0.0990 171 141 246
1.4413 0.5970 0.0000 171 141 246
1.4791 0.6127 -0.0990 171 141 246
1.5706 0.6506 -0.1400 171 141 246
1.6621 0.6884 -0.0990 171 141 246
1.5299 1.0222 0.0000 168 138 241
1.4958 0.9995 0.0990 168 138 241
1.4135 0.9445 0.1400 168 138 241
1.3312 0.8895 0.0990 168 138 241
1.2971 0.8667 0.0000 168 138 241
1.3312 0.8895 -0.0990 168 138 241
1.4135 0.9445 -0.1400 168 138 241
1.4958 0.9995 -0.0990 168 138 241
1.3011 1.3011 0.0000 163 134 234
1.2721 1.2721 0.0990 163 134 234
1.2021 1.2021 0.1400 163 134 234
1.1321 1.1321 0.0990 163 134 234
1.1031 1.1031 0.0000 163 134 234
1.1321 1.1321 -0.0990 163 134 234
1.2021 1.2021 -0.1400 163 134 234
1.2721 1.2721 -0.0990 163 134 234
1.0222 1.5299 0.0000 157 129 226
0.9995 1.4958 0.0990 157 129 226
0.9445 1.4135 0.1400 157 129 226
0.8895 1.3312 0.0990 157 129 226
0.8667 1.2971 0.0000 157 129 226
0.8895 1.3312 -0.0990 157 129 226
0.9445 1.4135 -0.1400 157 129 226
0.9995 1.4958 -0.0990 157 129 226
0.7041 1.6999 0.0000 150 124 216
0.6884 1.6621 0.0990 150 124 216
0.6506 1.5706 0.1400 150 124 216
0.6127 1.4791 0.0990 150 124 216
0.5970 1.4413 0.0000 150 124 216
0.6127 1.4791 -0.0990 150 124 216
0.6506 1.5706 -0.1400 150 124 216
0.6884 1.6621 -0.0990 150 124 216
0.3590 1.8046 0.0000 143 118 206
0.3510 1.7644 0.0990 143 118 206
0.3317 1.6673 0.1400 143 118 206
0.3123 1.5702 0.0990 143 118 206
0.3043 1.5300 0.0000 143 118 206
0.3123 1.5702 -0.0990 143 118 206
0.3317 1.6673 -0.1400 143 118 206
0.3510 1.7644 -0.0990 143 118 206
0.0000 1.8400 0.0000 136 112 195
0.0000 1.7990 0.0990 136 112 195
0.0000 1.7000 0.1400 136 112 195
0.0000 1.6010 0.0990 136 112 195
0.0000 1.5600 0.0000 136 112 195
0.0000 1.6010 -0.0990 136 112 195
0.0000 1.7000 -0.1400 136 112 195
0.0000 1.7990 -0.0990 136 112 195
-0.3590 1.8046 0.0000 128 105 184
-0.3510 1.7644 0.0990 128 105 184
-0.3317 1.6673 0.1400 128 105 184
-0.3123 1.5702 0.0990 128 105 184
-0.3043 1.5300 0.0000 128 105 184
-0.3123 1.5702 -0.0990 128 105 184
-0.3317 1.6673 -0.1400 128 105 184
-0.3510 1.7644 -0.0990 128 105 184
-0.7041 1.6999 0.0000 121 100 174
-0.6884 1.6621 0.0990 121 100 174
-0.6506 1.5706 0.1400 121 100 174
-0.6127 1.4791 0.0990 121 100 174
-0.5970 1.4413 0.0000 121 100 174
-0.6127 1.4791 -0.0990 121 100 174
-0.6506 1.5706 -0.1400 121 100 174
-0.6884 1.6621 -0.0990 121 100 174
-1.0222 1.5299 0.0000 114 94 164
-0.9995 1.4958 0.0990 114 94 164
-0.9445 1.4135 0.1400 114 94 164
-0.8895 1.3312 0.0990 114 94 164
-0.8667 1.2971 0.0000 114 94 164
-0.8895 1.3312 -0.0990 114 94 164
-0.9445 1.4135 -0.1400 114 94 164
-0.9995 1.4958 -0.0990 114 94 164
-1.3011 1.3011 0.0000 109 89 156
-1.2721 1.2721 0.0990 109 89 156
-1.2021 1.2021 0.1400 109 89 156
-1.1321 1.1321 0.0990 109 89 156
-1.1031 1.1031 0.0000 109 89 156
-1.1321 1.1321 -0.0990 109 89 156
-1.2021 1.2021 -0.1400 109 89 156
-1.2721 1.2721 -0.0990 109 89 156
-1.5299 1.0222 0.0000 104 85 149
-1.4958 0.9995 0.0990 104 85 149
-1.4135 0.9445 0.1400 104 85 149
-1.3312 0.8895 0.0990 104 85 149
-1.2971 0.8667 0.0000 104 85 149
-1.3312 0.8895 -0.0990 104 85 149
-1.4135 0.9445 -0.1400 104 85 149
-1.4958 0.9995 -0.0990 104 85 149
-1.6999 0.7041 0.0000 100 82 144
-1.6621 0.6884 0.0990 100 82 144
-1.5706 0.6506 0.1400 100 82 144
-1.4791 0.6127 0.0990 100 82 144
-1.4413 0.5970 0.0000 100 82 144
-1.4791 0.6127 -0.0990 100 82 144
-1.5706 0.6506 -0.1400 100 82 144
-1.6621 0.6884 -0.0990 100 82 144
-1.8046 0.3590 0.0000 98 81 141
-1.7644 0.3510 0.0990 98 81 141
-1.6673 0.3317 0.1400 98 81 141
-1.5702 0.3123 0.0990 98 81 141
-1.5300 0.3043 0.0000 98 81 141
-1.5702 0.3123 -0.0990 98 81 141
-1.6673 0.3317 -0.1400 98 81 141
-1.7644 0.3510 -0.0990 98 81 141
-1.8400 0.0000 0.0000 97 80 140
-1.7990 0.0000 0.0990 97 80 140
-1.7000 0.0000 0.1400 97 80 140
-1.6010 0.0000 0.0990 97 80 140
-1.5600 0.0000 0.0000 97 80 140
-1.6010 0.0000 -0.0990 97 80 140
-1.7000 0.0000 -0.1400 97 80 140
-1.7990 0.0000 -0.0990 97 80 140
-1.8046 -0.3590 0.0000 98 81 141
-1.7644 -0.3510 0.0990 98 81 141
-1.6673 -0.3317 0.1400 98 81 141
-1.5702 -0.3123 0.0990 98 81 141
-1.5300 -0.3043 0.0000 98 81 141
-1.5702 -0.3123 -0.0990 98 81 141
-1.6673 -0.3317 -0.1400 98 81 141
-1.7644 -0.3510 -0.0990 98 81 141
-1.6999 -0.7041 0.0000 100 82 144
-1.6621 -0.6884 0.0990 100 82 144
-1.5706 -0.6506 0.1400 100 82 144
-1.4791 -0.6127 0.0990 100 82 144
-1.4413 -0.5970 0.0000 100 82 144
-1.4791 -0.6127 -0.0990 100 82 144
-1.5706 -0.6506 -0.1400 100 82 144
-1.6621 -0.6884 -0.0990 100 82 144
-1.5299 -1.0222 0.0000 104 85 149
-1.4958 -0.9995 0.0990 104 85 149
-1.4135 -0.9445 0.1400 104 85 149
-1.3312 -0.8895 0.0990 104 85 149
-1.2971 -0.8667 0.0000 104 85 149
-1.3312 -0.8895 -0.0990 104 85 149
-1.4135 -0.9445 -0.1400 104 85 149
-1.4958 -0.9995 -0.0990 104 85 149
-1.3011 -1.3011 0.0000 109 89 156
-1.2721 -1.2721 0.0990 109 89 156
-1.2021 -1.2021 0.1400 109 89 156
-1.1321 -1.1321 0.0990 109 89 156
-1.1031 -1.1031 0.0000 109 89 156
-1.1321 -1.1321 -0.0990 109 89 156
-1.2021 -1.2021 -0.1400 109 89 156
-1.2721 -1.2721 -0.0990 109 89 156
-1.0222 -1.5299 0.0000 114 94 164
-0.9995 -1.4958 0.0990 114 94 164
-0.9445 -1.4135 0.1400 114 94 164
-0.8895 -1.3312 0.0990 114 94 164
-0.8667 -1.2971 0.0000 114 94 164
-0.8895 -1.3312 -0.0990 114 94 164
-0.9445 -1.4135 -0.1400 114 94 164
-0.9995 -1.4958 -0.0990 114 94 164
-0.7041 -1.6999 0.0000 121 100 174
-0.6884 -1.6621 0.0990 121 100 174
-0.6506 -1.5706 0.1400 121 100 174
-0.6127 -1.4791 0.0990 121 100 174
-0.5970 -1.4413 0.0000 121 100 174
-0.6127 -1.4791 -0.0990 121 100 174
-0.6506 -1.5706 -0.1400 121 100 174
-0.6884 -1.6621 -0.0990 121 100 174
-0.3590 -1.8046 0.0000 128 105 184
-0.3510 -1.7644 0.0990 128 105 184
-0.3317 -1.6673 0.1400 128 105 184
-0.3123 -1.5702 0.0990 128 105 184
-0.3043 -1.5300 0.0000 128 105 184
-0.3123 -1.5702 -0.0990 128 105 184
-0.3317 -1.6673 -0.1400 128 105 184
-0.3510 -1.7644 -0.0990 128 105 184
-0.0000 -1.8400 0.0000 136 112 195
-0.0000 -1.7990 0.0990 136 112 195
-0.0000 -1.7000 0.1400 136 112 195
-0.0000 -1.6010 0.0990 136 112 195
-0.0000 -1.5600 0.0000 136 112 195
-0.0000 -1.6010 -0.0990 136 112 195
-0.0000 -1.7000 -0.1400 136 112 195
-0.0000 -1.7990 -0.0990 136 112 195
0.3590 -1.8046 0.0000 143 118 206
0.3510 -1.7644 0.0990 143 118 206
0.3317 -1.6673 0.1400 143 118 206
0.3123 -1.5702 0.0990 143 118 206
0.3043 -1.5300 0.0000 143 118 206
0.3123 -1.5702 -0.0990 143 118 206
0.3317 -1.6673 -0.1400 143 118 206
0.3510 -1.7644 -0.0990 143 118 206
0.7041 -1.6999 0.0000 150 124 216
0.6884 -1.6621 0.0990 150 124 216
0.6506 -1.5706 0.1400 150 124 216
0.6127 -1.4791 0.0990 150 124 216
0.5970 -1.4413 0.0000 150 124 216
0.6127 -1.4791 -0.0990 150 124 216
0.6506 -1.5706 -0.1400 150 124 216
0.6884 -1.6621 -0.0990 150 124 216
1.0222 -1.5299 0.0000 157 129 226
0.9995 -1.4958 0.0990 157 129 226
0.9445 -1.4135 0.1400 157 129 226
0.8895 -1.3312 0.0990 157 129 226
0.8667 -1.2971 0.0000 157 129 226
0.8895 -1.3312 -0.0990 157 129 226
0.9445 -1.4135 -0.1400 157 129 226
0.9995 -1.4958 -0.0990 157 129 226
1.3011 -1.3011 0.0000 163 134 234
1.2721 -1.2721 0.0990 163 134 234
1.2021 -1.2021 0.1400 163 134 234
1.1321 -1.1321 0.0990 163 134 234
1.1031 -1.1031 0.0000 163 134 234
1.1321 -1.1321 -0.0990 163 134 234
1.2021 -1.2021 -0.1400 163 134 234
1.2721 -1.2721 -0.0990 163 134 234
1.5299 -1.0222 0.0000 168 138 241
1.4958 -0.9995 0.0990 168 138 241
1.4135 -0.9445 0.1400 168 138 241
1.3312 -0.8895 0.0990 168 138 241
1.2971 -0.8667 0.0000 168 138 241
1.3312 -0.8895 -0.0990 168 138 241
1.4135 -0.9445 -0.1400 168 138 241
1.4958 -0.9995 -0.0990 168 138 241
1.6999 -0.7041 0.0000 171 141 246
1.6621 -0.6884 0.0990 171 141 246
1.5706 -0.6506 0.1400 171 141 246
1.4791 -0.6127 0.0990 171 141 246
1.4413 -0.5970 0.0000 171 141 246
1.4791 -0.6127 -0.0990 171 141 246
1.5706 -0.6506 -0.1400 171 141 246
1.6621 -0.6884 -0.0990 171 141 246
1.8046 -0.3590 0.0000 173 142 249
1.7644 -0.3510 0.0990 173 142 249
1.6673 -0.3317 0.1400 173 142 249
1.5702 -0.3123 0.0990 173 142 249
1.5300 -0.3043 0.0000 173 142 249
1.5702 -0.3123 -0.0990 173 142 249
1.6673 -0.3317 -0.1400 173 142 249
1.7644 -0.3510 -0.0990 173 142 249
1.4900 0.0000 0.6200 110 127 232
1.4490 0.0000 0.7190 110 127 232
1.3500 0.0000 0.7600 110 127 232
1.2510 0.0000 0.7190 110 127 232
1.2100 0.0000 0.6200 110 127 232
1.2510 0.0000 0.5210 110 127 232
1.3500 0.0000 0.4800 110 127 232
1.4490 0.0000 0.5210 110 127 232
1.4614 0.2907 0.6200 110 126 231
1.4212 0.2827 0.7190 110 126 231
1.3241 0.2634 0.7600 110 126 231
1.2270 0.2441 0.7190 110 126 231
1.1868 0.2361 0.6200 110 126 231
1.2270 0.2441 0.5210 110 126 231
1.3241 0.2634 0.4800 110 126 231
1.4212 0.2827 0.5210 110 126 231
1.3766 0.5702 0.6200 108 125 228
1.3387 0.5545 0.7190 108 125 228
1.2472 0.5166 0.7600 108 125 228
1.1558 0.4787 0.7190 108 125 228
1.1179 0.4630 0.6200 108 125 228
1.1558 0.4787 0.5210 108 125 228
1.2472 0.5166 0.4800 108 125 228
1.3387 0.5545 0.5210 108 125 228
1.2389 0.8278 0.6200 106 122 223
1.2048 0.8050 0.7190 106 122 223
1.1225 0.7500 0.7600 106 122 223
1.0402 0.6950 0.7190 106 122 223
1.0061 0.6722 0.6200 106 122 223
1.0402 0.6950 0.5210 106 122 223
1.1225 0.7500 0.4800 106 122 223
1.2048 0.8050 0.5210 106 122 223
1.0536 1.0536 0.6200 103 119 217
1.0246 1.0246 0.7190 103 119 217
0.9546 0.9546 0.7600 103 119 217
0.8846 0.8846 0.7190 103 119 217
0.8556 0.8556 0.6200 103 119 217
0.8846 0.8846 0.5210 103 119 217
0.9546 0.9546 0.4800 103 119 217
1.0246 1.0246 0.5210 103 119 217
0.8278 1.2389 0.6200 99 115 209
0.8050 1.2048 0.7190 99 115 209
0.7500 1.1225 0.7600 99 115 209
0.6950 1.0402 0.7190 99 115 209
0.6722 1.0061 0.6200 99 115 209
0.6950 1.0402 0.5210 99 115 209
0.7500 1.1225 0.4800 99 115 209
0.8050 1.2048 0.5210 99 115 209
0.5702 1.3766 0.6200 95 110 200
0.5545 1.3387 0.7190 95 110 200
0.5166 1.2472 0.7600 95 110 200
0.4787 1.1558 0.7190 95 110 200
0.4630 1.1179 0.6200 95 110 200
0.4787 1.1558 0.5210 95 110 200
0.5166 1.2472 0.4800 95 110 200
0.5545 1.3387 0.5210 95 110 200
0.2907 1.4614 0.6200 91 105 191
0.2827 1.4212 0.7190 91 105 191
0.2634 1.3241 0.7600 91 105 191
0.2441 1.2270 0.7190 91 105 191
0.2361 1.1868 0.6200 91 105 191
0.2441 1.2270 0.5210 91 105 191
0.2634 1.3241 0.4800 91 105 191
0.2827 1.4212 0.5210 91 105 191
0.0000 1.4900 0.6200 86 99 181
0.0000 1.4490 0.7190 86 99 181
0.0000 1.3500 0.7600 86 99 181
0.0000 1.2510 0.7190 86 99 181
0.0000 1.2100 0.6200 86 99 181
0.0000 1.2510 0.5210 86 99 181
0.0000 1.3500 0.4800 86 99 181
0.0000 1.4490 0.5210 86 99 181
-0.2907 1.4614 0.6200 81 94 171
-0.2827 1.4212 0.7190 81 94 171
-0.2634 1.3241 0.7600 81 94 171
-0.2441 1.2270 0.7190 81 94 171
-0.2361 1.1868 0.6200 81 94 171
-0.2441 1.2270 0.5210 81 94 171
-0.2634 1.3241 0.4800 81 94 171
-0.2827 1.4212 0.5210 81 94 171
-0.5702 1.3766 0.6200 77 88 161
-0.5545 1.3387 0.7190 77 88 161
-0.5166 1.2472 0.7600 77 88 161
-0.4787 1.1558 0.7190 77 88 161
-0.4630 1.1179 0.6200 77 88 161
-0.4787 1.1558 0.5210 77 88 161
-0.5166 1.2472 0.4800 77 88 161
-0.5545 1.3387 0.5210 77 88 161
-0.8278 1.2389 0.6200 72 84 153
-0.8050 1.2048 0.7190 72 84 153
-0.7500 1.1225 0.7600 72 84 153
-0.6950 1.0402 0.7190 72 84 153
-0.6722 1.0061 0.6200 72 84 153
-0.6950 1.0402 0.5210 72 84 153
-0.7500 1.1225 0.4800 72 84 153
-0.8050 1.2048 0.5210 72 84 153
-1.0536 1.0536 0.6200 69 79 145
-1.0246 1.0246 0.7190 69 79 145
-0.9546 0.9546 0.7600 69 79 145
-0.8846 0.8846 0.7190 69 79 145
-0.8556 0.8556 0.6200 69 79 145
-0.8846 0.8846 0.5210 69 79 145
-0.9546 0.9546 0.4800 69 79 145
-1.0246 1.0246 0.5210 69 79 145
-1.2389 0.8278 0.6200 66 76 139
-1.2048 0.8050 0.7190 66 76 139
-1.1225 0.7500 0.7600 66 76 139
-1.0402 0.6950 0.7190 66 76 139
-1.0061 0.6722 0.6200 66 76 139
-1.0402 0.6950 0.5210 66 76 139
-1.1225 0.7500 0.4800 66 76 139
-1.2048 0.8050 0.5210 66 76 139
-1.3766 0.5702 0.6200 63 73 134
-1.3387 0.5545 0.7190 63 73 134
-1.2472 0.5166 0.7600 63 73 134
-1.1558 0.4787 0.7190 63 73 134
-1.1179 0.4630 0.6200 63 73 134
-1.1558 0.4787 0.5210 63 73 134
-1.2472 0.5166 0.4800 63 73 134
-1.3387 0.5545 0.5210 63 73 134
-1.4614 0.2907 0.6200 62 72 131
-1.4212 0.2827 0.7190 62 72 131
-1.3241 0.2634 0.7600 62 72 131
-1.2270 0.2441 0.7190 62 72 131
-1.1868 0.2361 0.6200 62 72 131
-1.2270 0.2441 0.5210 62 72 131
-1.3241 0.2634 0.4800 62 72 131
-1.4212 0.2827 0.5210 62 72 131
-1.4900 0.0000 0.6200 62 71 130
-1.4490 0.0000 0.7190 62 71 130
-1.3500 0.0000 0.7600 62 71 130
-1.2510 0.0000 0.7190 62 71 130
-1.2100 0.0000 0.6200 62 71 130
-1.2510 0.0000 0.5210 62 71 130
-1.3500 0.0000 0.4800 62 71 130
-1.4490 0.0000 0.5210 62 71 130
-1.4614 -0.2907 0.6200 62 72 131
-1.4212 -0.2827 0.7190 62 72 131
-1.3241 -0.2634 0.7600 62 72 131
-1.2270 -0.2441 0.7190 62 72 131
-1.1868 -0.2361 0.6200 62 72 131
-1.2270 -0.2441 0.5210 62 72 131
-1.3241 -0.2634 0.4800 62 72 131
-1.4212 -0.2827 0.5210 62 72 131
-1.3766 -0.5702 0.6200 63 73 134
-1.3387 -0.5545 0.7190 63 73 134
-1.2472 -0.5166 0.7600 63 73 134
-1.1558 -0.4787 0.7190 63 73 134
-1.1179 -0.4630 0.6200 63 73 134
-1.1558 -0.4787 0.5210 63 73 134
-1.2472 -0.5166 0.4800 63 73 134
-1.3387 -0.5545 0.5210 63 73 134
-1.2389 -0.8278 0.6200 66 76 139
-1.2048 -0.8050 0.7190 66 76 139
-1.1225 -0.7500 0.7600 66 76 139
-1.0402 -0.6950 0.7190 66 76 139
-1.0061 -0.6722 0.6200 66 76 139
-1.0402 -0.6950 0.5210 66 76 139
-1.1225 -0.7500 0.4800 66 76 139
-1.2048 -0.8050 0.5210 66 76 139
-1.0536 -1.0536 0.6200 69 79 145
-1.0246 -1.0246 0.7190 69 79 145
-0.9546 -0.9546 0.7600 69 79 145
-0.8846 -0.8846 0.7190 69 79 145
-0.8556 -0.8556 0.6200 69 79 145
-0.8846 -0.8846 0.5210 69 79 145
-0.9546 -0.9546 0.4800 69 79 145
-1.0246 -1.0246 0.5210 69 79 145
-0.8278 -1.2389 0.6200 72 84 153
-0.8050 -1.2048 0.7190 72 84 153
-0.7500 -1.1225 0.7600 72 84 153
-0.6950 -1.0402 0.7190 72 84 153
-0.6722 -1.0061 0.6200 72 84 153
-0.6950 -1.0402 0.5210 72 84 153
-0.7500 -1.1225 0.4800 72 84 153
-0.8050 -1.2048 0.5210 72 84 153
-0.5702 -1.3766 0.6200 77 88 161
-0.5545 -1.3387 0.7190 77 88 161
-0.5166 -1.2472 0.7600 77 88 161
-0.4787 -1.1558 0.7190 77 88 161
-0.4630 -1.1179 0.6200 77 88 161
-0.4787 -1.1558 0.5210 77 88 161
-0.5166 -1.2472 0.4800 77 88 161
-0.5545 -1.3387 0.5210 77 88 161
-0.2907 -1.4614 0.6200 81 94 171
-0.2827 -1.4212 0.7190 81 94 171
-0.2634 -1.3241 0.7600 81 94 171
-0.2441 -1.2270 0.7190 81 94 171
-0.2361 -1.1868 0.6200 81 94 171
-0.2441 -1.2270 0.5210 81 94 171
-0.2634 -1.3241 0.4800 81 94 171
-0.2827 -1.4212 0.5210 81 94 171
-0.0000 -1.4900 0.6200 86 99 181
-0.0000 -1.4490 0.7190 86 99 181
-0.0000 -1.3500 0.7600 86 99 181
-0.0000 -1.2510 0.7190 86 99 181
-0.0000 -1.2100 0.6200 86 99 181
-0.0000 -1.2510 0.5210 86 99 181
-0.0000 -1.3500 0.4800 86 99 181
-0.0000 -1.4490 0.5210 86 99 181
0.2907 -1.4614 0.6200 91 105 191
0.2827 -1.4212 0.7190 91 105 191
0.2634 -1.3241 0.7600 91 105 191
0.2441 -1.2270 0.7190 91 105 191
0.2361 -1.1868 0.6200 91 105 191
0.2441 -1.2270 0.5210 91 105 191
0.2634 -1.3241 0.4800 91 105 191
0.2827 -1.4212 0.5210 91 105 191
0.5702 -1.3766 0.6200 95 110 200
0.5545 -1.3387 0.7190 95 110 200
0.5166 -1.2472 0.7600 95 110 200
0.4787 -1.1558 0.7190 95 110 200
0.4630 -1.1179 0.6200 95 110 200
0.4787 -1.1558 0.5210 95 110 200
0.5166 -1.2472 0.4800 95 110 200
0.5545 -1.3387 0.5210 95 110 200
0.8278 -1.2389 0.6200 99 115 209
0.8050 -1.2048 0.7190 99 115 209
0.7500 -1.1225 0.7600 99 115 209
0.6950 -1.0402 0.7190 99 115 209
0.6722 -1.0061 0.6200 99 115 209
0.6950 -1.0402 0.5210 99 115 209
0.7500 -1.1225 0.4800 99 115 209
0.8050 -1.2048 0.5210 99 115 209
1.0536 -1.0536 0.6200 103 119 217
1.0246 -1.0246 0.7190 103 119 217
0.9546 -0.9546 0.7600 103 119 217
0.8846 -0.8846 0.7190 103 119 217
0.8556 -0.8556 0.6200 103 119 217
0.8846 -0.8846 0.5210 103 119 217
0.9546 -0.9546 0.4800 103 119 217
1.0246 -1.0246 0.5210 103 119 217
1.2389 -0.8278 0.6200 106 122 223
1.2048 -0.8050 0.7190 106 122 223
1.1225 -0.7500 0.7600 106 122 223
1.0402 -0.6950 0.7190 106 122 223
1.0061 -0.6722 0.6200 106 122 223
1.0402 -0.6950 0.5210 106 122 223
1.1225 -0.7500 0.4800 106 122 223
1.2048 -0.8050 0.5210 106 122 223
1.3766 -0.5702 0.6200 108 125 228
1.3387 -0.5545 0.7190 108 125 228
1.2472 -0.5166 0.7600 108 125 228
1.1558 -0.4787 0.7190 108 125 228
1.1179 -0.4630 0.6200 108 125 228
1.1558 -0.4787 0.5210 108 125 228
1.2472 -0.5166 0.4800 108 125 228
1.3387 -0.5545 0.5210 108 125 228
1.4614 -0.2907 0.6200 110 126 231
1.4212 -0.2827 0.7190 110 126 231
1.3241 -0.2634 0.7600 110 126 231
1.2270 -0.2441 0.7190 110 126 231
1.1868 -0.2361 0.6200 110 126 231
1.2270 -0.2441 0.5210 110 126 231
1.3241 -0.2634 0.4800 110 126 231
1.4212 -0.2827 0.5210 110 126 231
1.0900 0.0000 1.1300 116 204 226
1.0490 0.0000 1.2290 116 204 226
0.9500 0.0000 1.2700 116 204 226
0.8510 0.0000 1.2290 116 204 226
0.8100 0.0000 1.1300 116 204 226
0.8510 0.0000 1.0310 116 204 226
0.9500 0.0000 0.9900 116 204 226
1.0490 0.0000 1.0310 116 204 226
1.0691 0.2126 1.1300 116 203 225
1.0288 0.2046 1.2290 116 203 225
0.9317 0.1853 1.2700 116 203 225
0.8347 0.1660 1.2290 116 203 225
0.7944 0.1580 1.1300 116 203 225
0.8347 0.1660 1.0310 116 203 225
0.9317 0.1853 0.9900 116 203 225
1.0288 0.2046 1.0310 116 203 225
1.0070 0.4171 1.1300 114 201 222
0.9691 0.4014 1.2290 114 201 222
0.8777 0.3635 1.2700 114 201 222
0.7862 0.3257 1.2290 114 201 222
0.7483 0.3100 1.1300 114 201 222
0.7862 0.3257 1.0310 114 201 222
0.8777 0.3635 0.9900 114 201 222
0.9691 0.4014 1.0310 114 201 222
0.9063 0.6056 1.1300 112 196 218
0.8722 0.5828 1.2290 112 196 218
0.7899 0.5278 1.2700 112 196 218
0.7076 0.4728 1.2290 112 196 218
0.6735 0.4500 1.1300 112 196 218
0.7076 0.4728 1.0310 112 196 218
0.7899 0.5278 0.9900 112 196 218
0.8722 0.5828 1.0310 112 196 218
0.7707 0.7707 1.1300 109 191 211
0.7418 0.7418 1.2290 109 191 211
0.6718 0.6718 1.2700 109 191 211
0.6018 0.6018 1.2290 109 191 211
0.5728 0.5728 1.1300 109 191 211
0.6018 0.6018 1.0310 109 191 211
0.6718 0.6718 0.9900 109 191 211
0.7418 0.7418 1.0310 109 191 211
0.6056 0.9063 1.1300 105 184 204
0.5828 0.8722 1.2290 105 184 204
0.5278 0.7899 1.2700 105 184 204
0.4728 0.7076 1.2290 105 184 204
0.4500 0.6735 1.1300 105 184 204
0.4728 0.7076 1.0310 105 184 204
0.5278 0.7899 0.9900 105 184 204
0.5828 0.8722 1.0310 105 184 204
0.4171 1.0070 1.1300 100 176 195
0.4014 0.9691 1.2290 100 176 195
0.3635 0.8777 1.2700 100 176 195
0.3257 0.7862 1.2290 100 176 195
0.3100 0.7483 1.1300 100 176 195
0.3257 0.7862 1.0310 100 176 195
0.3635 0.8777 0.9900 100 176 195
0.4014 0.9691 1.0310 100 176 195
0.2126 1.0691 1.1300 95 168 186
0.2046 1.0288 1.2290 95 168 186
0.1853 0.9317 1.2700 95 168 186
0.1660 0.8347 1.2290 95 168 186
0.1580 0.7944 1.1300 95 168 186
0.1660 0.8347 1.0310 95 168 186
0.1853 0.9317 0.9900 95 168 186
0.2046 1.0288 1.0310 95 168 186
0.0000 1.0900 1.1300 90 159 176
0.0000 1.0490 1.2290 90 159 176
0.0000 0.9500 1.2700 90 159 176
0.0000 0.8510 1.2290 90 159 176
0.0000 0.8100 1.1300 90 159 176
0.0000 0.8510 1.0310 90 159 176
0.0000 0.9500 0.9900 90 159 176
0.0000 1.0490 1.0310 90 159 176
-0.2126 1.0691 1.1300 86 150 167
-0.2046 1.0288 1.2290 86 150 167
-0.1853 0.9317 1.2700 86 150 167
-0.1660 0.8347 1.2290 86 150 167
-0.1580 0.7944 1.1300 86 150 167
-0.1660 0.8347 1.0310 86 150 167
-0.1853 0.9317 0.9900 86 150 167
-0.2046 1.0288 1.0310 86 150 167
-0.4171 1.0070 1.1300 81 142 157
-0.4014 0.9691 1.2290 81 142 157
-0.3635 0.8777 1.2700 81 142 157
-0.3257 0.7862 1.2290 81 142 157
-0.3100 0.7483 1.1300 81 142 157
-0.3257 0.7862 1.0310 81 142 157
-0.3635 0.8777 0.9900 81 142 157
-0.4014 0.9691 1.0310 81 142 157
-0.6056 0.9063 1.1300 76 134 149
-0.5828 0.8722 1.2290 76 134 149
-0.5278 0.7899 1.2700 76 134 149
-0.4728 0.7076 1.2290 76 134 149
-0.4500 0.6735 1.1300 76 134 149
-0.4728 0.7076 1.0310 76 134 149
-0.5278 0.7899 0.9900 76 134 149
-0.5828 0.8722 1.0310 76 134 149
-0.7707 0.7707 1.1300 72 127 141
-0.7418 0.7418 1.2290 72 127 141
-0.6718 0.6718 1.2700 72 127 141
-0.6018 0.6018 1.2290 72 127 141
-0.5728 0.5728 1.1300 72 127 141
-0.6018 0.6018 1.0310 72 127 141
-0.6718 0.6718 0.9900 72 127 141
-0.7418 0.7418 1.0310 72 127 141
-0.9063 0.6056 1.1300 69 122 135
-0.8722 0.5828 1.2290 69 122 135
-0.7899 0.5278 1.2700 69 122 135
-0.7076 0.4728 1.2290 69 122 135
-0.6735 0.4500 1.1300 69 122 135
-0.7076 0.4728 1.0310 69 122 135
-0.7899 0.5278 0.9900 69 122 135
-0.8722 0.5828 1.0310 69 122 135
-1.0070 0.4171 1.1300 67 118 130
-0.9691 0.4014 1.2290 67 118 130
-0.8777 0.3635 1.2700 67 118 130
-0.7862 0.3257 1.2290 67 118 130
-0.7483 0.3100 1.1300 67 118 130
-0.7862 0.3257 1.0310 67 118 130
-0.8777 0.3635 0.9900 67 118 130
-0.9691 0.4014 1.0310 67 118 130
-1.0691 0.2126 1.1300 65 115 128
-1.0288 0.2046 1.2290 65 115 128
-0.9317 0.1853 1.2700 65 115 128
-0.8347 0.1660 1.2290 65 115 128
-0.7944 0.1580 1.1300 65 115 128
-0.8347 0.1660 1.0310 65 115 128
-0.9317 0.1853 0.9900 65 115 128
-1.0288 0.2046 1.0310 65 115 128
-1.0900 0.0000 1.1300 65 114 127
-1.0490 0.0000 1.2290 65 114 127
-0.9500 0.0000 1.2700 65 114 127
-0.8510 0.0000 1.2290 65 114 127
-0.8100 0.0000 1.1300 65 114 127
-0.8510 0.0000 1.0310 65 114 127
-0.9500 0.0000 0.9900 65 114 127
-1.0490 0.0000 1.0310 65 114 127
-1.0691 -0.2126 1.1300 65 115 128
-1.0288 -0.2046 1.2290 65 115 128
-0.9317 -0.1853 1.2700 65 115 128
-0.8347 -0.1660 1.2290 65 115 128
-0.7944 -0.1580 1.1300 65 115 128
-0.8347 -0.1660 1.0310 65 115 128
-0.9317 -0.1853 0.9900 65 115 128
-1.0288 -0.2046 1.0310 65 115 128
-1.0070 -0.4171 1.1300 67 118 130
-0.9691 -0.4014 1.2290 67 118 130
-0.8777 -0.3635 1.2700 67 118 130
-0.7862 -0.3257 1.2290 67 118 130
-0.7483 -0.3100 1.1300 67 118 130
-0.7862 -0.3257 1.0310 67 118 130
-0.8777 -0.3635 0.9900 67 118 130
-0.9691 -0.4014 1.0310 67 118 130
-0.9063 -0.6056 1.1300 69 122 135
-0.8722 -0.5828 1.2290 69 122 135
-0.7899 -0.5278 1.2700 69 122 135
-0.7076 -0.4728 1.2290 69 122 135
-0.6735 -0.4500 1.1300 69 122 135
-0.7076 -0.4728 1.0310 69 122 135
-0.7899 -0.5278 0.9900 69 122 135
-0.8722 -0.5828 1.0310 69 122 135
-0.7707 -0.7707 1.1300 72 127 141
-0.7418 -0.7418 1.2290 72 127 141
-0.6718 -0.6718 1.2700 72 127 141
-0.6018 -0.6018 1.2290 72 127 141
-0.5728 -0.5728 1.1300 72 127 141
-0.6018 -0.6018 1.0310 72 127 141
-0.6718 -0.6718 0.9900 72 127 141
-0.7418 -0.7418 1.0310 72 127 141
-0.6056 -0.9063 1.1300 76 134 149
-0.5828 -0.8722 1.2290 76 134 149
-0.5278 -0.7899 1.2700 76 134 149
-0.4728 -0.7076 1.2290 76 134 149
-0.4500 -0.6735 1.1300 76 134 149
-0.4728 -0.7076 1.0310 76 134 149
-0.5278 -0.7899 0.9900 76 134 149
-0.5828 -0.8722 1.0310 76 134 149
-0.4171 -1.0070 1.1300 81 142 157
-0.4014 -0.9691 1.2290 81 142 157
-0.3635 -0.8777 1.2700 81 142 157
-0.3257 -0.7862 1.2290 81 142 157
-0.3100 -0.7483 1.1300 81 142 157
-0.3257 -0.7862 1.0310 81 142 157
-0.3635 -0.8777 0.9900 81 142 157
-0.4014 -0.9691 1.0310 81 142 157
-0.2126 -1.0691 1.1300 86 150 167
-0.2046 -1.0288 1.2290 86 150 167
-0.1853 -0.9317 1.2700 86 150 167
-0.1660 -0.8347 1.2290 86 150 167
-0.1580 -0.7944 1.1300 86 150 167
-0.1660 -0.8347 1.0310 86 150 167
-0.1853 -0.9317 0.9900 86 150 167
-0.2046 -1.0288 1.0310 86 150 167
-0.0000 -1.0900 1.1300 90 159 176
-0.0000 -1.0490 1.2290 90 159 176
-0.0000 -0.9500 1.2700 90 159 176
-0.0000 -0.8510 1.2290 90 159 176
-0.0000 -0.8100 1.1300 90 159 176
-0.0000 -0.8510 1.0310 90 159 176
-0.0000 -0.9500 0.9900 90 159 176
-0.0000 -1.0490 1.0310 90 159 176
0.2126 -1.0691 1.1300 95 168 186
0.2046 -1.0288 1.2290 95 168 186
0.1853 -0.9317 1.2700 95 168 186
0.1660 -0.8347 1.2290 95 168 186
0.1580 -0.7944 1.1300 95 168 186
0.1660 -0.8347 1.0310 95 168 186
0.1853 -0.9317 0.9900 95 168 186
0.2046 -1.0288 1.0310 95 168 186
0.4171 -1.0070 1.1300 100 176 195
0.4014 -0.9691 1.2290 100 176 195
0.3635 -0.8777 1.2700 100 176 195
0.3257 -0.7862 1.2290 100 176 195
0.3100 -0.7483 1.1300 100 176 195
0.3257 -0.7862 1.0310 100 176 195
0.3635 -0.8777 0.9900 100 176 195
0.4014 -0.9691 1.0310 100 176 195
0.6056 -0.9063 1.1300 105 184 204
0.5828 -0.8722 1.2290 105 184 204
0.5278 -0.7899 1.2700 105 184 204
0.4728 -0.7076 1.2290 105 184 204
0.4500 -0.6735 1.1300 105 184 204
0.4728 -0.7076 1.0310 105 184 204
0.5278 -0.7899 0.9900 105 184 204
0.5828 -0.8722 1.0310 105 184 204
0.7707 -0.7707 1.1300 109 191 211
0.7418 -0.7418 1.2290 109 191 211
0.6718 -0.6718 1.2700 109 191 211
0.6018 -0.6018 1.2290 109 191 211
0.5728 -0.5728 1.1300 109 191 211
0.6018 -0.6018 1.0310 109 191 211
0.6718 -0.6718 0.9900 109 191 211
0.7418 -0.7418 1.0310 109 191 211
0.9063 -0.6056 1.1300 112 196 218
0.8722 -0.5828 1.2290 112 196 218
0.7899 -0.5278 1.2700 112 196 218
0.7076 -0.4728 1.2290 112 196 218
0.6735 -0.4500 1.1300 112 196 218
0.7076 -0.4728 1.0310 112 196 218
0.7899 -0.5278 0.9900 112 196 218
0.8722 -0.5828 1.0310 112 196 218
1.0070 -0.4171 1.1300 114 201 222
0.9691 -0.4014 1.2290 114 201 222
0.8777 -0.3635 1.2700 114 201 222
0.7862 -0.3257 1.2290 114 201 222
0.7483 -0.3100 1.1300 114 201 222
0.7862 -0.3257 1.0310 114 201 222
0.8777 -0.3635 0.9900 114 201 222
0.9691 -0.4014 1.0310 114 201 222
1.0691 -0.2126 1.1300 116 203 225
1.0288 -0.2046 1.2290 116 203 225
0.9317 -0.1853 1.2700 116 203 225
0.8347 -0.1660 1.2290 116 203 225
0.7944 -0.1580 1.1300 116 203 225
0.8347 -0.1660 1.0310 116 203 225
0.9317 -0.1853 0.9900 116 203 225
1.0288 -0.2046 1.0310 116 203 225
0.0000 0.0000 1.9000 196 178 255
0.4300 0.0000 0.6500 196 178 255
0.0000 0.4300 0.6500 196 178 255
-0.4300 0.0000 0.6500 196 178 255
0.0000 -0.4300 0.6500 196 178 255
0.0000 0.0000 -0.5000 196 178 255
3 0 8 9
3 0 9 1
3 1 9 10
3 1 10 2
3 2 10 11
3 2 11 3
3 3 11 12
3 3 12 4
3 4 12 13
3 4 13 5
3 5 13 14
3 5 14 6
3 6 14 15
3 6 15 7
3 7 15 8
3 7 8 0
3 8 16 17
3 8 17 9
3 9 17 18
3 9 18 10
3 10 18 19
3 10 19 11
3 11 19 20
3 11 20 12
3 12 20 21
3 12 21 13
3 13 21 22
3 13 22 14
3 14 22 23
3 14 23 15
3 15 23 16
3 15 16 8
3 16 24 25
3 16 25 17
3 17 25 26
3 17 26 18
3 18 26 27
3 18 27 19
3 19 27 28
3 19 28 20
3 20 28 29
3 20 29 21
3 21 29 30
3 21 30 22
3 22 30 31
3 22 31 23
3 23 31 24
3 23 24 16
3 24 32 33
3 24 33 25
3 25 33 34
3 25 34 26
3 26 34 35
3 26 35 27
3 27 35 36
3 27 36 28
3 28 36 37
3 28 37 29
3 29 37 38
3 29 38 30
3 30 38 39
3 30 39 31
3 31 39 32
3 31 32 24
3 32 40 41
3 32 41 33
3 33 41 42
3 33 42 34
3 34 42 43
3 34 43 35
3 35 43 44
3 35 44 36
3 36 44 45
3 36 45 37
3 37 45 46
3 37 46 38
3 38 46 47
3 38 47 39
3 39 47 40
3 39 40 32
3 40 48 49
3 40 49 41
3 41 49 50
3 41 50 42
3 42 50 51
3 42 51 43
3 43 51 52
3 43 52 44
3 44 52 53
3 44 53 45
3 45 53 54
3 45 54 46
3 46 54 55
3 46 55 47
3 47 55 48
3 47 48 40
3 48 56 57
3 48 57 49
3 49 57 58
3 49 58 50
3 50 58 59
3 50 59 51
3 51 59 60
3 51 60 52
3 52 60 61
3 52 61 53
3 53 61 62
3 53 62 54
3 54 62 63
3 54 63 55
3 55 63 56
3 55 56 48
3 56 64 65
3 56 65 57
3 57 65 66
3 57 66 58
3 58 66 67
3 58 67 59
3 59 67 68
3 59 68 60
3 60 68 69
3 60 69 61
3 61 69 70
3 61 70 62
3 62 70 71
3 62 71 63
3 63 71 64
3 63 64 56
3 64 72 73
3 64 73 65
3 65 73 74
3 65 74 66
3 66 74 75
3 66 75 67
3 67 75 76
3 67 76 68
3 68 76 77
3 68 77 69
3 69 77 78
3 69 78 70
3 70 78 79
3 70 79 71
3 71 79 72
3 71 72 64
3 72 80 81
3 72 81 73
3 73 81 82
3 73 82 74
3 74 82 83
3 74 83 75
3 75 83 84
3 75 84 76
3 76 84 85
3 76 85 77
3 77 85 86
3 77 86 78
3 78 86 87
3 78 87 79
3 79 87 80
3 79 80 72
3 80 88 89
3 80 89 81
3 81 89 90
3 81 90 82
3 82 90 91
3 82 91 83
3 83 91 92
3 83 92 84
3 84 92 93
3 84 93 85
3 85 93 94
3 85 94 86
3 86 94 95
3 86 95 87
3 87 95 88
3 87 88 80
3 88 96 97
3 88 97 89
3 89 97 98
3 89 98 90
3 90 98 99
3 90 99 91
3 91 99 100
3 91 100 92
3 92 100 101
3 92 101 93
3 93 101 102
3 93 102 94
3 94 102 103
3 94 103 95
3 95 103 96
3 95 96 88
3 96 104 105
3 96 105 97
3 97 105 106
3 97 106 98
3 98 106 107
3 98 107 99
3 99 107 108
3 99 108 100
3 100 108 109
3 100 109 101
3 101 109 110
3 101 110 102
3 102 110 111
3 102 111 103
3 103 111 104
3 103 104 96
3 104 112 113
3 104 113 105
3 105 113 114
3 105 114 106
3 106 114 115
3 106 115 107
3 107 115 116
3 107 116 108
3 108 116 117
3 108 117 109
3 109 117 118
3 109 118 110
3 110 118 119
3 110 119 111
3 111 119 112
3 111 112 104
3 112 120 121
3 112 121 113
3 113 121 122
3 113 122 114
3 114 122 123
3 114 123 115
3 115 123 124
3 115 124 116
3 116 124 125
3 116 125 117
3 117 125 126
3 117 126 118
3 118 126 127
3 118 127 119
3 119 127 120
3 119 120 112
3 120 128 129
3 120 129 121
3 121 129 130
3 121 130 122
3 122 130 131
3 122 131 123
3 123 131 132
3 123 132 124
3 124 132 133
3 124 133 125
3 125 133 134
3 125 134 126
3 126 134 135
3 126 135 127
3 127 135 128
3 127 128 120
3 128 136 137
3 128 137 129
3 129 137 138
3 129 138 130
3 130 138 139
3 130 139 131
3 131 139 140
3 131 140 132
3 132 140 141
3 132 141 133
3 133 141 142
3 133 142 134
3 134 142 143
3 134 143 135
3 135 143 136
3 135 136 128
3 136 144 145
3 136 145 137
3 137 145 146
3 137 146 138
3 138 146 147
3 138 147 139
3 139 147 148
3 139 148 140
3 140 148 149
3 140 149 141
3 141 149 150
3 141 150 142
3 142 150 151
3 142 151 143
3 143 151 144
3 143 144 136
3 144 152 153
3 144 153 145
3 145 153 154
3 145 154 146
3 146 154 155
3 146 155 147
3 147 155 156
3 147 156 148
3 148 156 157
3 148 157 149
3 149 157 158
3 149 158 150
3 150 158 159
3 150 159 151
3 151 159 152
3 151 152 144
3 152 160 161
3 152 161 153
3 153 161 162
3 153 162 154
3 154 162 163
3 154 163 155
3 155 163 164
3 155 164 156
3 156 164 165
3 156 165 157
3 157 165 166
3 157 166 158
3 158 166 167
3 158 167 159
3 159 167 160
3 159 160 152
3 160 168 169
3 160 169 161
3 161 169 170
3 161 170 162
3 162 170 171
3 162 171 163
3 163 171 172
3 163 172 164
3 164 172 173
3 164 173 165
3 165 173 174
3 165 174 166
3 166 174 175
3 166 175 167
3 167 175 168
3 167 168 160
3 168 176 177
3 168 177 169
3 169 177 178
3 169 178 170
3 170 178 179
3 170 179 171
3 171 179 180
3 171 180 172
3 172 180 181
3 172 181 173
3 173 181 182
3 173 182 174
3 174 182 183
3 174 183 175
3 175 183 176
3 175 176 168
3 176 184 185
3 176 185 177
3 177 185 186
3 177 186 178
3 178 186 187
3 178 187 179
3 179 187 188
3 179 188 180
3 180 188 189
3 180 189 181
3 181 189 190
3 181 190 182
3 182 190 191
3 182 191 183
3 183 191 184
3 183 184 176
3 184 192 193
3 184 193 185
3 185 193 194
3 185 194 186
3 186 194 195
3 186 195 187
3 187 195 196
3 187 196 188
3 188 196 197
3 188 197 189
3 189 197 198
3 189 198 190
3 190 198 199
3 190 199 191
3 191 199 192
3 191 192 184
3 192 200 201
3 192 201 193
3 193 201 202
3 193 202 194
3 194 202 203
3 194 203 195
3 195 203 204
3 195 204 196
3 196 204 205
3 196 205 197
3 197 205 206
3 197 206 198
3 198 206 207
3 198 207 199
3 199 207 200
3 199 200 192
3 200 208 209
3 200 209 201
3 201 209 210
3 201 210 202
3 202 210 211
3 202 211 203
3 203 211 212
3 203 212 204
3 204 212 213
3 204 213 205
3 205 213 214
3 205 214 206
3 206 214 215
3 206 215 207
3 207 215 208
3 207 208 200
3 208 216 217
3 208 217 209
3 209 217 218
3 209 218 210
3 210 218 219
3 210 219 211
3 211 219 220
3 211 220 212
3 212 220 221
3 212 221 213
3 213 221 222
3 213 222 214
3 214 222 223
3 214 223 215
3 215 223 216
3 215 216 208
3 216 224 225
3 216 225 217
3 217 225 226
3 217 226 218
3 218 226 227
3 218 227 219
3 219 227 228
3 219 228 220
3 220 228 229
3 220 229 221
3 221 229 230
3 221 230 222
3 222 230 231
3 222 231 223
3 223 231 224
3 223 224 216
3 224 232 233
3 224 233 225
3 225 233 234
3 225 234 226
3 226 234 235
3 226 235 227
3 227 235 236
3 227 236 228
3 228 236 237
3 228 237 229
3 229 237 238
3 229 238 230
3 230 238 239
3 230 239 231
3 231 239 232
3 231 232 224
3 232 240 241
3 232 241 233
3 233 241 242
3 233 242 234
3 234 242 243
3 234 243 235
3 235 243 244
3 235 244 236
3 236 244 245
3 236 245 237
3 237 245 246
3 237 246 238
3 238 246 247
3 238 247 239
3 239 247 240
3 239 240 232
3 240 248 249
3 240 249 241
3 241 249 250
3 241 250 242
3 242 250 251
3 242 251 243
3 243 251 252
3 243 252 244
3 244 252 253
3 244 253 245
3 245 253 254
3 245 254 246
3 246 254 255
3 246 255 247
3 247 255 248
3 247 248 240
3 248 0 1
3 248 1 249
3 249 1 2
3 249 2 250
3 250 2 3
3 250 3 251
3 251 3 4
3 251 4 252
3 252 4 5
3 252 5 253
3 253 5 6
3 253 6 254
3 254 6 7
3 254 7 255
3 255 7 0
3 255 0 248
3 256 264 265
3 256 265 257
3 257 265 266
3 257 266 258
3 258 266 267
3 258 267 259
3 259 267 268
3 259 268 260
3 260 268 269
3 260 269 261
3 261 269 270
3 261 270 262
3 262 270 271
3 262 271 263
3 263 271 264
3 263 264 256
3 264 272 273
3 264 273 265
3 265 273 274
3 265 274 266
3 266 274 275
3 266 275 267
3 267 275 276
3 267 276 268
3 268 276 277
3 268 277 269
3 269 277 278
3 269 278 270
3 270 278 279
3 270 279 271
3 271 279 272
3 271 272 264
3 272 280 281
3 272 281 273
3 273 281 282
3 273 282 274
3 274 282 283
3 274 283 275
3 275 283 284
3 275 284 276
3 276 284 285
3 276 285 277
3 277 285 286
3 277 286 278
3 278 286 287
3 278 287 279
3 279 287 280
3 279 280 272
3 280 288 289
3 280 289 281
3 281 289 290
3 281 290 282
3 282 290 291
3 282 291 283
3 283 291 292
3 283 292 284
3 284 292 293
3 284 293 285
3 285 293 294
3 285 294 286
3 286 294 295
3 286 295 287
3 287 295 288
3 287 288 280
3 288 296 297
3 288 297 289
3 289 297 298
3 289 298 290
3 290 298 299
3 290 299 291
3 291 299 300
3 291 300 292
3 292 300 301
3 292 301 293
3 293 301 302
3 293 302 294
3 294 302 303
3 294 303 295
3 295 303 296
3 295 296 288
3 296 304 305
3 296 305 297
3 297 305 306
3 297 306 298
3 298 306 307
3 298 307 299
3 299 307 308
3 299 308 300
3 300 308 309
3 300 309 301
3 301 309 310
3 301 310 302
3 302 310 311
3 302 311 303
3 303 311 304
3 303 304 296
3 304 312 313
3 304 313 305
3 305 313 314
3 305 314 306
3 306 314 315
3 306 315 307
3 307 315 316
3 307 316 308
3 308 316 317
3 308 317 309
3 309 317 318
3 309 318 310
3 310 318 319
3 310 319 311
3 311 319 312
3 311 312 304
3 312 320 321
3 312 321 313
3 313 321 322
3 313 322 314
3 314 322 323
3 314 323 315
3 315 323 324
3 315 324 316
3 316 324 325
3 316 325 317
3 317 325 326
3 317 326 318
3 318 326 327
3 318 327 319
3 319 327 320
3 319 320 312
3 320 328 329
3 320 329 321
3 321 329 330
3 321 330 322
3 322 330 331
3 322 331 323
3 323 331 332
3 323 332 324
3 324 332 333
3 324 333 325
3 325 333 334
3 325 334 326
3 326 334 335
3 326 335 327
3 327 335 328
3 327 328 320
3 328 336 337
3 328 337 329
3 329 337 338
3 329 338 330
3 330 338 339
3 330 339 331
3 331 339 340
3 331 340 332
3 332 340 341
3 332 341 333
3 333 341 342
3 333 342 334
3 334 342 343
3 334 343 335
3 335 343 336
3 335 336 328
3 336 344 345
3 336 345 337
3 337 345 346
3 337 346 338
3 338 346 347
3 338 347 339
3 339 347 348
3 339 348 340
3 340 348 349
3 340 349 341
3 341 349 350
3 341 350 342
3 342 350 351
3 342 351 343
3 343 351 344
3 343 344 336
3 344 352 353
3 344 353 345
3 345 353 354
3 345 354 346
3 346 354 355
3 346 355 347
3 347 355 356
3 347 356 348
3 348 356 357
3 348 357 349
3 349 357 358
3 349 358 350
3 350 358 359
3 350 359 351
3 351 359 352
3 351 352 344
3 352 360 361
3 352 361 353
3 353 361 362
3 353 362 354
3 354 362 363
3 354 363 355
3 355 363 364
3 355 364 356
3 356 364 365
3 356 365 357
3 357 365 366
3 357 366 358
3 358 366 367
3 358 367 359
3 359 367 360
3 359 360 352
3 360 368 369
3 360 369 361
3 361 369 370
3 361 370 362
3 362 370 371
3 362 371 363
3 363 371 372
3 363 372 364
3 364 372 373
3 364 373 365
3 365 373 374
3 365 374 366
3 366 374 375
3 366 375 367
3 367 375 368
3 367 368 360
3 368 376 377
3 368 377 369
3 369 377 378
3 369 378 370
3 370 378 379
3 370 379 371
3 371 379 380
3 371 380 372
3 372 380 381
3 372 381 373
3 373 381 382
3 373 382 374
3 374 382 383
3 374 383 375
3 375 383 376
3 375 376 368
3 376 384 385
3 376 385 377
3 377 385 386
3 377 386 378
3 378 386 387
3 378 387 379
3 379 387 388
3 379 388 380
3 380 388 389
3 380 389 381
3 381 389 390
3 381 390 382
3 382 390 391
3 382 391 383
3 383 391 384
3 383 384 376
3 384 392 393
3 384 393 385
3 385 393 394
3 385 394 386
3 386 394 395
3 386 395 387
3 387 395 396
3 387 396 388
3 388 396 397
3 388 397 389
3 389 397 398
3 389 398 390
3 390 398 399
3 390 399 391
3 391 399 392
3 391 392 384
3 392 400 401
3 392 401 393
3 393 401 402
3 393 402 394
3 394 402 403
3 394 403 395
3 395 403 404
3 395 404 396
3 396 404 405
3 396 405 397
3 397 405 406
3 397 406 398
3 398 406 407
3 398 407 399
3 399 407 400
3 399 400 392
3 400 408 409
3 400 409 401
3 401 409 410
3 401 410 402
3 402 410 411
3 402 411 403
3 403 411 412
3 403 412 404
3 404 412 413
3 404 413 405
3 405 413 414
3 405 414 406
3 406 414 415
3 406 415 407
3 407 415 408
3 407 408 400
3 408 416 417
3 408 417 409
3 409 417 418
3 409 418 410
3 410 418 419
3 410 419 411
3 411 419 420
3 411 420 412
3 412 420 421
3 412 421 413
3 413 421 422
3 413 422 414
3 414 422 423
3 414 423 415
3 415 423 416
3 415 416 408
3 416 424 425
3 416 425 417
3 417 425 426
3 417 426 418
3 418 426 427
3 418 427 419
3 419 427 428
3 419 428 420
3 420 428 429
3 420 429 421
3 421 429 430
3 421 430 422
3 422 430 431
3 422 431 423
3 423 431 424
3 423 424 416
3 424 432 433
3 424 433 425
3 425 433 434
3 425 434 426
3 426 434 435
3 426 435 427
3 427 435 436
3 427 436 428
3 428 436 437
3 428 437 429
3 429 437 438
3 429 438 430
3 430 438 439
3 430 439 431
3 431 439 432
3 431 432 424
3 432 440 441
3 432 441 433
3 433 441 442
3 433 442 434
3 434 442 443
3 434 443 435
3 435 443 444
3 435 444 436
3 436 444 445
3 436 445 437
3 437 445 446
3 437 446 438
3 438 446 447
3 438 447 439
3 439 447 440
3 439 440 432
3 440 448 449
3 440 449 441
3 441 449 450
3 441 450 442
3 442 450 451
3 442 451 443
3 443 451 452
3 443 452 444
3 444 452 453
3 444 453 445
3 445 453 454
3 445 454 446
3 446 454 455
3 446 455 447
3 447 455 448
3 447 448 440
3 448 456 457
3 448 457 449
3 449 457 458
3 449 458 450
3 450 458 459
3 450 459 451
3 451 459 460
3 451 460 452
3 452 460 461
3 452 461 453
3 453 461 462
3 453 462 454
3 454 462 463
3 454 463 455
3 455 463 456
3 455 456 448
3 456 464 465
3 456 465 457
3 457 465 466
3 457 466 458
3 458 466 467
3 458 467 459
3 459 467 468
3 459 468 460
3 460 468 469
3 460 469 461
3 461 469 470
3 461 470 462
3 462 470 471
3 462 471 463
3 463 471 464
3 463 464 456
3 464 472 473
3 464 473 465
3 465 473 474
3 465 474 466
3 466 474 475
3 466 475 467
3 467 475 476
3 467 476 468
3 468 476 477
3 468 477 469
3 469 477 478
3 469 478 470
3 470 478 479
3 470 479 471
3 471 479 472
3 471 472 464
3 472 480 481
3 472 481 473
3 473 481 482
3 473 482 474
3 474 482 483
3 474 483 475
3 475 483 484
3 475 484 476
3 476 484 485
3 476 485 477
3 477 485 486
3 477 486 478
3 478 486 487
3 478 487 479
3 479 487 480
3 479 480 472
3 480 488 489
3 480 489 481
3 481 489 490
3 481 490 482
3 482 490 491
3 482 491 483
3 483 491 492
3 483 492 484
3 484 492 493
3 484 493 485
3 485 493 494
3 485 494 486
3 486 494 495
3 486 495 487
3 487 495 488
3 487 488 480
3 488 496 497
3 488 497 489
3 489 497 498
3 489 498 490
3 490 498 499
3 490 499 491
3 491 499 500
3 491 500 492
3 492 500 501
3 492 501 493
3 493 501 502
3 493 502 494
3 494 502 503
3 494 503 495
3 495 503 496
3 495 496 488
3 496 504 505
3 496 505 497
3 497 505 506
3 497 506 498
3 498 506 507
3 498 507 499
3 499 507 508
3 499 508 500
3 500 508 509
3 500 509 501
3 501 509 510
3 501 510 502
3 502 510 511
3 502 511 503
3 503 511 504
3 503 504 496
3 504 256 257
3 504 257 505
3 505 257 258
3 505 258 506
3 506 258 259
3 506 259 507
3 507 259 260
3 507 260 508
3 508 260 261
3 508 261 509
3 509 261 262
3 509 262 510
3 510 262 263
3 510 263 511
3 511 263 256
3 511 256 504
3 512 520 521
3 512 521 513
3 513 521 522
3 513 522 514
3 514 522 523
3 514 523 515
3 515 523 524
3 515 524 516
3 516 524 525
3 516 525 517
3 517 525 526
3 517 526 518
3 518 526 527
3 518 527 519
3 519 527 520
3 519 520 512
3 520 528 529
3 520 529 521
3 521 529 530
3 521 530 522
3 522 530 531
3 522 531 523
3 523 531 532
3 523 532 524
3 524 532 533
3 524 533 525
3 525 533 534
3 525 534 526
3 526 534 535
3 526 535 527
3 527 535 528
3 527 528 520
3 528 536 537
3 528 537 529
3 529 537 538
3 529 538 530
3 530 538 539
3 530 539 531
3 531 539 540
3 531 540 532
3 532 540 541
3 532 541 533
3 533 541 542
3 533 542 534
3 534 542 543
3 534 543 535
3 535 543 536
3 535 536 528
3 536 544 545
3 536 545 537
3 537 545 546
3 537 546 538
3 538 546 547
3 538 547 539
3 539 547 548
3 539 548 540
3 540 548 549
3 540 549 541
3 541 549 550
3 541 550 542
3 542 550 551
3 542 551 543
3 543 551 544
3 543 544 536
3 544 552 553
3 544 553 545
3 545 553 554
3 545 554 546
3 546 554 555
3 546 555 547
3 547 555 556
3 547 556 548
3 548 556 557
3 548 557 549
3 549 557 558
3 549 558 550
3 550 558 559
3 550 559 551
3 551 559 552
3 551 552 544
3 552 560 561
3 552 561 553
3 553 561 562
3 553 562 554
3 554 562 563
3 554 563 555
3 555 563 564
3 555 564 556
3 556 564 565
3 556 565 557
3 557 565 566
3 557 566 558
3 558 566 567
3 558 567 559
3 559 567 560
3 559 560 552
3 560 568 569
3 560 569 561
3 561 569 570
3 561 570 562
3 562 570 571
3 562 571 563
3 563 571 572
3 563 572 564
3 564 572 573
3 564 573 565
3 565 573 574
3 565 574 566
3 566 574 575
3 566 575 567
3 567 575 568
3 567 568 560
3 568 576 577
3 568 577 569
3 569 577 578
3 569 578 570
3 570 578 579
3 570 579 571
3 571 579 580
3 571 580 572
3 572 580 581
3 572 581 573
3 573 581 582
3 573 582 574
3 574 582 583
3 574 583 575
3 575 583 576
3 575 576 568
3 576 584 585
3 576 585 577
3 577 585 586
3 577 586 578
3 578 586 587
3 578 587 579
3 579 587 588
3 579 588 580
3 580 588 589
3 580 589 581
3 581 589 590
3 581 590 582
3 582 590 591
3 582 591 583
3 583 591 584
3 583 584 576
3 584 592 593
3 584 593 585
3 585 593 594
3 585 594 586
3 586 594 595
3 586 595 587
3 587 595 596
3 587 596 588
3 588 596 597
3 588 597 589
3 589 597 598
3 589 598 590
3 590 598 599
3 590 599 591
3 591 599 592
3 591 592 584
3 592 600 601
3 592 601 593
3 593 601 602
3 593 602 594
3 594 602 603
3 594 603 595
3 595 603 604
3 595 604 596
3 596 604 605
3 596 605 597
3 597 605 606
3 597 606 598
3 598 606 607
3 598 607 599
3 599 607 600
3 599 600 592
3 600 608 609
3 600 609 601
3 601 609 610
3 601 610 602
3 602 610 611
3 602 611 603
3 603 611 612
3 603 612 604
3 604 612 613
3 604 613 605
3 605 613 614
3 605 614 606
3 606 614 615
3 606 615 607
3 607 615 608
3 607 608 600
3 608 616 617
3 608 617 609
3 609 617 618
3 609 618 610
3 610 618 619
3 610 619 611
3 611 619 620
3 611 620 612
3 612 620 621
3 612 621 613
3 613 621 622
3 613 622 614
3 614 622 623
3 614 623 615
3 615 623 616
3 615 616 608
3 616 624 625
3 616 625 617
3 617 625 626
3 617 626 618
3 618 626 627
3 618 627 619
3 619 627 628
3 619 628 620
3 620 628 629
3 620 629 621
3 621 629 630
3 621 630 622
3 622 630 631
3 622 631 623
3 623 631 624
3 623 624 616
3 624 632 633
3 624 633 625
3 625 633 634
3 625 634 626
3 626 634 635
3 626 635 627
3 627 635 636
3 627 636 628
3 628 636 637
3 628 637 629
3 629 637 638
3 629 638 630
3 630 638 639
3 630 639 631
3 631 639 632
3 631 632 624
3 632 640 641
3 632 641 633
3 633 641 642
3 633 642 634
3 634 642 643
3 634 643 635
3 635 643 644
3 635 644 636
3 636 644 645
3 636 645 637
3 637 645 646
3 637 646 638
3 638 646 647
3 638 647 639
3 639 647 640
3 639 640 632
3 640 648 649
3 640 649 641
3 641 649 650
3 641 650 642
3 642 650 651
3 642 651 643
3 643 651 652
3 643 652 644
3 644 652 653
3 644 653 645
3 645 653 654
3 645 654 646
3 646 654 655
3 646 655 647
3 647 655 648
3 647 648 640
3 648 656 657
3 648 657 649
3 649 657 658
3 649 658 650
3 650 658 659
3 650 659 651
3 651 659 660
3 651 660 652
3 652 660 661
3 652 661 653
3 653 661 662
3 653 662 654
3 654 662 663
3 654 663 655
3 655 663 656
3 655 656 648
3 656 664 665
3 656 665 657
3 657 665 666
3 657 666 658
3 658 666 667
3 658 667 659
3 659 667 668
3 659 668 660
3 660 668 669
3 660 669 661
3 661 669 670
3 661 670 662
3 662 670 671
3 662 671 663
3 663 671 664
3 663 664 656
3 664 672 673
3 664 673 665
3 665 673 674
3 665 674 666
3 666 674 675
3 666 675 667
3 667 675 676
3 667 676 668
3 668 676 677
3 668 677 669
3 669 677 678
3 669 678 670
3 670 678 679
3 670 679 671
3 671 679 672
3 671 672 664
3 672 680 681
3 672 681 673
3 673 681 682
3 673 682 674
3 674 682 683
3 674 683 675
3 675 683 684
3 675 684 676
3 676 684 685
3 676 685 677
3 677 685 686
3 677 686 678
3 678 686 687
3 678 687 679
3 679 687 680
3 679 680 672
3 680 688 689
3 680 689 681
3 681 689 690
3 681 690 682
3 682 690 691
3 682 691 683
3 683 691 692
3 683 692 684
3 684 692 693
3 684 693 685
3 685 693 694
3 685 694 686
3 686 694 695
3 686 695 687
3 687 695 688
3 687 688 680
3 688 696 697
3 688 697 689
3 689 697 698
3 689 698 690
3 690 698 699
3 690 699 691
3 691 699 700
3 691 700 692
3 692 700 701
3 692 701 693
3 693 701 702
3 693 702 694
3 694 702 703
3 694 703 695
3 695 703 696
3 695 696 688
3 696 704 705
3 696 705 697
3 697 705 706
3 697 706 698
3 698 706 707
3 698 707 699
3 699 707 708
3 699 708 700
3 700 708 709
3 700 709 701
3 701 709 710
3 701 710 702
3 702 710 711
3 702 711 703
3 703 711 704
3 703 704 696
3 704 712 713
3 704 713 705
3 705 713 714
3 705 714 706
3 706 714 715
3 706 715 707
3 707 715 716
3 707 716 708
3 708 716 717
3 708 717 709
3 709 717 718
3 709 718 710
3 710 718 719
3 710 719 711
3 711 719 712
3 711 712 704
3 712 720 721
3 712 721 713
3 713 721 722
3 713 722 714
3 714 722 723
3 714 723 715
3 715 723 724
3 715 724 716
3 716 724 725
3 716 725 717
3 717 725 726
3 717 726 718
3 718 726 727
3 718 727 719
3 719 727 720
3 719 720 712
3 720 728 729
3 720 729 721
3 721 729 730
3 721 730 722
3 722 730 731
3 722 731 723
3 723 731 732
3 723 732 724
3 724 732 733
3 724 733 725
3 725 733 734
3 725 734 726
3 726 734 735
3 726 735 727
3 727 735 728
3 727 728 720
3 728 736 737
3 728 737 729
3 729 737 738
3 729 738 730
3 730 738 739
3 730 739 731
3 731 739 740
3 731 740 732
3 732 740 741
3 732 741 733
3 733 741 742
3 733 742 734
3 734 742 743
3 734 743 735
3 735 743 736
3 735 736 728
3 736 744 745
3 736 745 737
3 737 745 746
3 737 746 738
3 738 746 747
3 738 747 739
3 739 747 748
3 739 748 740
3 740 748 749
3 740 749 741
3 741 749 750
3 741 750 742
3 742 750 751
3 742 751 743
3 743 751 744
3 743 744 736
3 744 752 753
3 744 753 745
3 745 753 754
3 745 754 746
3 746 754 755
3 746 755 747
3 747 755 756
3 747 756 748
3 748 756 757
3 748 757 749
3 749 757 758
3 749 758 750
3 750 758 759
3 750 759 751
3 751 759 752
3 751 752 744
3 752 760 761
3 752 761 753
3 753 761 762
3 753 762 754
3 754 762 763
3 754 763 755
3 755 763 764
3 755 764 756
3 756 764 765
3 756 765 757
3 757 765 766
3 757 766 758
3 758 766 767
3 758 767 759
3 759 767 760
3 759 760 752
3 760 512 513
3 760 513 761
3 761 513 514
3 761 514 762
3 762 514 515
3 762 515 763
3 763 515 516
3 763 516 764
3 764 516 517
3 764 517 765
3 765 517 518
3 765 518 766
3 766 518 519
3 766 519 767
3 767 519 512
3 767 512 760
3 768 769 770
3 773 770 769
3 768 770 771
3 773 771 770
3 768 771 772
3 773 772 771
3 768 772 769
3 773 769 772
